P2
16 16
255
115 97 92 92 92 92 92 92 92 92 92 92 92 92 97 114 97 93 91 91 91 91 91 91 91 91 91 91 91 91 93 96 92 91 92 92 92 92 92 92 92 94 101 103 101 93 91 90 92 92 92 92 92 92 92 91 95 132 203 223 202 102 91 91 92 92 92 92 92 92 92 91 107 207 244 239 213 103 91 91 92 92 92 92 92 92 92 89 110 232 231 127 109 93 91 91 92 92 92 92 92 92 93 105 126 235 230 120 104 93 92 91 92 92 92 92 92 91 106 211 232 247 246 231 206 103 91 91 92 92 92 92 92 91 105 202 223 246 245 222 197 102 91 91 92 92 92 92 92 92 93 104 124 235 230 120 103 93 92 91 92 92 92 92 92 92 92 89 110 233 228 106 90 92 92 91 92 91 91 91 91 91 91 90 111 233 228 106 90 91 91 90 94 98 99 99 99 99 99 97 117 234 229 113 98 99 98 92 102 124 130 129 129 129 129 129 145 239 235 142 129 130 124 100 106 121 124 124 124 124 124 123 136 208 204 133 123 124 121 104 114 98 93 93 93 93 93 93 94 100 100 94 93 93 98 113 