P2
100 100
255
75 40 14 17 17 14 19 15 17 17 18 19 18 18 17 16 16 
17 16 16 16 18 18 16 16 16 16 16 16 17 18 18 23 
23 23 25 29 33 33 32 34 32 29 28 27 27 28 29 33 
27 41 43 46 48 38 50 59 59 65 86 67 57 62 61 79 
91 75 61 59 53 50 42 39 40 44 45 39 36 35 32 30 
30 23 20 32 45 49 48 45 56 67 68 63 58 56 56 51 
47 42 39 82 35 11 16 17 16 17 16 17 18 18 19 19 18 17 16 17 
18 17 16 17 19 18 17 17 17 17 16 16 16 18 18 21 
21 21 23 26 30 32 32 33 32 31 30 29 29 30 31 35 
28 36 40 47 48 37 48 52 56 67 91 80 72 73 70 73 
88 87 79 70 68 68 53 49 44 43 40 34 32 33 33 31 
30 25 26 38 47 45 40 50 67 77 69 57 53 58 61 55 
51 47 43 83 27 10 16 16 17 14 17 18 18 19 19 19 18 17 17 18 
18 18 17 18 19 19 17 18 18 18 17 16 16 17 18 19 
19 18 20 23 26 30 33 34 34 35 35 34 33 32 31 29 
34 37 30 36 40 29 37 52 52 58 76 71 72 78 78 75 
89 89 86 84 82 83 82 76 74 66 52 42 44 44 36 36 
30 22 27 44 56 58 59 62 69 69 61 60 69 73 69 52 
51 49 47 68 19 13 17 14 17 12 16 19 19 19 19 19 18 18 18 18 
19 18 17 18 19 19 17 16 17 18 18 17 16 16 17 20 
19 18 19 20 23 28 33 35 37 40 40 39 38 34 31 35 
30 27 30 43 47 56 93 108 106 110 118 112 107 103 97 95 
102 92 91 104 96 90 103 112 93 82 78 64 47 42 44 36 
27 18 24 41 54 62 69 77 73 66 62 67 74 68 56 49 
48 48 47 40 12 18 18 12 18 13 17 20 20 20 20 19 19 18 18 18 
19 18 17 18 19 19 17 14 17 19 20 19 17 16 16 24 
21 19 20 20 22 26 31 33 37 41 43 43 42 38 34 30 
42 40 33 47 68 99 140 150 140 138 140 148 159 173 183 167 
165 156 140 123 109 96 93 87 81 78 76 72 66 58 48 24 
21 20 31 49 59 67 75 73 73 72 70 67 61 54 49 54 
52 49 46 17 9 19 17 13 18 16 20 21 20 20 20 19 19 19 19 18 
19 18 17 18 19 19 17 15 18 21 22 20 18 17 17 26 
22 20 21 21 22 25 29 29 35 39 41 43 45 43 40 40 
46 42 52 86 108 105 98 103 93 94 92 101 106 116 129 150 
142 165 182 186 196 166 106 74 71 68 65 64 61 43 18 24 
25 28 37 51 60 68 77 73 71 68 63 57 53 55 60 61 
57 51 46 11 14 17 15 15 16 17 21 21 21 21 20 20 19 19 19 19 
20 19 18 18 20 19 17 18 21 23 23 21 18 18 19 27 
22 19 21 22 22 23 26 28 32 35 35 39 44 46 45 43 
54 77 107 113 94 91 106 99 84 83 76 87 95 112 135 148 
155 184 191 192 221 234 221 132 85 54 55 55 41 30 29 36 
35 31 31 39 46 52 60 73 67 58 52 50 54 59 63 62 
54 45 40 15 20 14 14 17 13 15 20 22 21 21 20 20 19 19 19 20 
21 20 19 19 20 20 18 21 23 25 24 21 19 19 21 26 
20 18 21 23 21 22 24 28 31 32 31 35 42 47 47 68 
89 102 103 99 98 102 101 82 74 85 91 113 125 147 176 187 
190 188 177 186 201 209 234 245 183 101 44 27 35 36 25 31 
32 30 30 40 48 55 60 42 47 49 48 52 61 67 68 58 
49 37 31 17 16 16 18 18 16 17 20 24 22 20 21 20 19 19 21 20 
21 22 22 21 21 20 20 20 21 24 24 22 18 18 21 27 
23 20 21 22 22 21 22 23 28 32 32 33 32 54 51 77 
103 96 96 101 103 90 87 76 87 100 107 108 111 124 138 185 
206 222 208 194 194 189 178 206 237 220 161 88 39 26 28 29 
39 23 31 40 44 39 36 29 40 48 49 53 60 57 49 37 
34 29 26 15 20 21 16 13 17 21 21 21 20 20 22 22 20 20 21 22 
22 23 23 22 21 20 20 20 21 23 24 22 18 19 21 27 
24 21 22 22 21 21 21 24 25 32 25 30 39 68 93 98 
102 97 100 98 96 91 83 92 91 90 86 79 73 74 78 101 
153 177 198 201 189 183 195 186 182 217 217 198 144 77 43 30 
34 25 29 38 43 40 38 42 43 44 46 51 52 45 36 29 
27 25 24 21 17 19 22 20 18 18 17 19 19 21 23 23 22 21 21 22 
22 23 23 23 22 22 21 20 21 23 24 22 19 19 21 26 
24 23 22 21 20 19 21 28 25 31 28 53 74 87 113 109 
93 91 98 96 92 98 85 99 91 80 73 66 59 52 48 58 
87 146 172 186 199 172 138 179 181 150 168 179 170 122 69 42 
31 29 29 38 39 36 36 45 43 45 49 50 45 35 28 26 
25 24 23 23 14 16 22 19 15 18 21 20 20 22 23 23 22 21 20 20 
21 21 22 24 24 24 23 20 21 22 23 22 19 19 21 25 
24 24 23 21 19 19 20 20 24 24 33 71 94 91 97 107 
89 88 94 97 93 103 91 84 77 69 66 66 64 59 54 54 
74 92 123 164 158 173 172 129 148 156 127 149 159 144 117 62 
32 29 28 40 39 35 38 42 49 56 56 49 38 31 28 27 
26 25 24 101 45 10 17 25 25 24 22 23 23 23 22 22 21 20 19 20 
20 20 22 23 24 23 22 20 20 21 22 21 19 19 21 25 
24 24 24 22 20 19 21 18 27 25 47 76 85 90 98 105 
100 95 94 101 94 99 92 77 75 73 72 72 71 68 66 72 
68 88 100 121 129 131 163 166 135 124 138 127 142 134 132 87 
43 28 26 41 42 42 50 51 59 61 52 39 32 28 26 26 
25 24 24 155 127 89 41 6 10 27 26 24 25 24 22 21 21 20 19 21 
20 20 21 22 22 21 20 20 19 20 21 21 19 19 21 24 
23 23 24 24 22 21 21 24 25 30 69 84 81 94 109 105 
111 103 98 104 97 96 94 87 89 90 88 86 84 83 81 70 
75 70 103 101 118 126 117 120 147 121 95 121 116 125 124 110 
68 36 27 38 43 48 57 59 58 49 36 28 29 30 28 28 
27 25 24 134 110 116 130 103 57 28 15 23 24 24 21 21 22 22 20 22 
21 20 21 22 22 21 19 19 18 19 20 20 19 19 20 23 
22 22 25 26 24 23 22 23 18 37 79 84 90 100 108 111 
116 108 109 109 106 105 106 100 102 103 100 97 95 93 91 100 
95 80 81 90 98 95 130 129 103 109 111 98 115 106 102 114 
93 51 33 34 42 47 52 49 43 33 27 26 28 31 31 30 
29 27 26 100 94 105 124 145 159 125 63 21 23 23 22 22 23 23 21 21 
20 19 21 23 23 22 20 19 18 18 19 19 18 19 20 23 
21 21 25 27 26 24 23 25 23 56 84 79 102 112 116 121 
121 114 122 115 116 117 118 116 117 115 110 106 104 99 95 89 
90 94 78 87 86 98 85 102 123 111 90 97 102 97 82 104 
104 61 38 33 43 47 46 35 29 27 29 29 27 27 30 27 
27 26 26 88 93 98 112 124 148 158 162 89 14 28 17 23 26 20 25 24 
22 20 19 20 21 22 23 20 19 19 20 21 20 20 20 21 
22 20 21 27 29 27 27 26 35 70 78 91 115 113 120 119 
121 123 123 122 121 121 121 123 122 119 116 114 112 108 103 91 
86 94 80 87 89 80 82 80 86 98 85 85 76 75 94 89 
98 92 60 39 49 49 30 27 26 27 30 30 28 27 28 28 
29 30 30 74 75 80 93 109 133 139 154 155 89 13 25 26 20 22 18 23 
22 21 21 22 22 23 22 21 20 20 21 21 20 20 21 22 
22 19 18 24 27 26 28 28 44 83 84 105 112 117 117 125 
125 124 123 122 122 123 123 123 122 118 114 111 111 109 107 97 
91 93 80 81 81 78 72 83 80 76 68 70 65 72 75 98 
108 106 81 45 30 33 28 26 28 28 26 27 32 36 37 34 
33 31 30 63 64 64 87 91 128 121 149 159 147 48 20 28 22 30 23 22 
22 22 23 23 24 23 22 22 22 22 22 21 19 20 22 26 
24 19 17 22 24 24 27 32 59 90 91 110 111 119 118 126 
125 124 124 124 124 124 123 125 124 121 117 114 114 112 110 107 
100 96 86 81 78 84 67 70 71 64 64 68 58 63 51 65 
95 100 95 75 40 26 28 24 31 34 31 32 37 39 36 42 
39 36 35 58 62 59 97 71 130 111 140 137 150 130 21 24 21 20 25 22 
22 22 23 23 24 23 22 22 22 23 23 20 18 19 22 28 
27 22 21 23 23 21 24 41 76 86 98 106 116 120 125 125 
126 128 130 132 131 127 125 127 128 128 125 121 118 115 112 112 
105 99 94 85 81 94 68 63 69 61 53 61 53 57 57 59 
85 93 92 73 46 40 32 43 46 48 47 48 49 46 42 42 
40 38 38 54 55 65 96 59 117 107 123 149 114 164 59 15 23 15 29 22 
22 21 21 22 23 23 23 22 22 23 23 20 18 19 22 26 
27 25 25 27 25 24 29 57 87 87 101 109 119 124 127 129 
130 132 134 135 134 131 128 125 126 126 124 122 119 115 111 108 
101 97 98 87 80 95 67 52 61 59 46 63 57 45 57 65 
70 78 76 51 47 66 61 54 48 44 45 46 45 44 45 42 
43 44 43 52 50 78 82 61 93 110 113 157 89 140 125 14 26 26 26 24 
22 21 20 21 22 23 23 22 21 22 23 21 19 19 21 22 
24 25 26 28 28 33 42 70 88 92 100 114 115 122 120 127 
127 126 126 126 125 124 122 118 118 117 115 114 114 112 109 103 
96 95 99 87 76 89 65 40 44 49 46 72 64 37 41 57 
68 65 61 66 52 33 37 36 29 26 31 33 29 28 31 38 
40 40 39 50 51 82 65 67 72 108 117 152 95 99 171 46 18 25 16 25 
23 22 21 21 22 22 22 22 21 22 24 23 21 20 20 20 
22 22 23 26 30 43 59 80 86 93 103 112 114 117 116 120 
120 120 119 118 116 115 115 111 110 108 107 109 110 106 102 102 
93 96 99 88 74 81 65 45 36 36 46 71 65 48 38 24 
46 47 45 78 73 24 19 23 22 24 27 28 26 25 27 31 
30 28 26 46 53 75 55 65 60 101 123 144 96 61 180 97 13 21 25 25 
24 23 22 23 23 22 22 22 21 22 24 25 23 21 20 21 
22 20 19 22 30 49 70 86 89 90 111 106 120 115 119 117 
120 122 122 120 117 116 115 106 106 105 106 109 108 102 95 101 
90 95 98 87 72 76 66 40 29 36 63 81 68 59 32 33 
34 49 36 44 72 50 22 25 27 27 24 22 25 30 33 36 
33 28 25 45 54 69 50 59 44 100 132 134 95 54 148 157 23 21 20 24 
23 22 23 24 24 22 22 20 21 21 22 22 21 21 20 22 
20 22 23 31 38 46 84 83 92 94 105 114 118 120 123 122 
119 115 112 112 113 112 109 106 103 102 102 99 98 97 92 94 
93 89 97 82 63 69 73 47 35 32 85 82 74 65 37 36 
58 53 41 50 43 44 40 27 24 23 25 26 26 29 34 26 
26 27 29 42 49 58 48 51 43 95 133 132 85 46 128 170 50 13 18 21 
21 22 23 25 24 22 21 20 21 22 23 23 22 21 20 28 
22 20 26 41 32 55 79 83 100 105 109 121 128 125 122 122 
122 119 114 111 109 106 103 103 97 95 94 91 90 88 83 87 
85 81 89 79 63 72 76 48 37 38 86 85 74 68 43 36 
64 67 49 52 56 57 37 27 26 28 33 33 30 28 29 28 
28 29 30 42 44 51 50 47 44 90 132 129 73 42 102 181 79 6 20 19 
20 22 23 24 24 22 20 19 20 22 24 24 23 22 21 22 
24 26 51 51 18 28 25 55 86 110 117 125 122 120 126 115 
115 113 113 115 116 113 108 102 95 92 89 85 84 83 79 84 
81 77 83 74 58 70 74 59 45 49 90 89 74 70 46 38 
64 73 56 58 65 69 46 29 27 29 34 36 32 27 26 30 
29 29 29 48 40 49 51 50 45 87 128 125 68 45 84 178 96 6 24 19 
21 22 23 23 24 22 20 20 21 22 24 24 24 23 23 23 
31 32 63 44 21 20 14 4 24 56 87 123 126 121 130 111 
120 128 126 115 100 86 77 75 72 72 73 71 75 80 81 79 
78 78 83 75 59 75 80 65 47 54 89 90 73 70 46 45 
61 68 59 66 66 70 67 43 35 30 30 30 28 26 27 28 
27 26 25 56 36 47 47 52 45 86 123 119 62 48 75 170 107 12 20 20 
22 23 22 22 23 23 21 21 22 22 23 23 24 24 24 27 
35 47 60 41 29 21 23 14 8 11 12 41 60 80 105 94 
99 96 77 52 38 39 45 41 43 50 55 56 65 76 81 75 
77 81 82 73 54 74 82 61 41 50 85 88 75 71 49 52 
64 67 58 70 64 64 76 61 48 35 28 26 24 24 26 26 
24 22 21 65 35 45 44 52 48 86 119 112 55 48 66 160 122 18 11 20 
23 24 22 21 23 23 21 23 22 22 22 22 23 24 24 24 
33 65 55 57 32 15 17 20 25 36 6 2 2 10 20 24 
29 30 25 17 12 10 10 12 14 20 22 19 23 32 36 53 
58 65 64 61 48 78 91 57 38 47 83 85 77 70 51 55 
67 72 58 66 62 58 66 63 50 36 28 25 23 23 26 24 
23 21 20 68 36 41 47 50 52 80 109 104 51 51 54 147 132 14 9 17 
22 24 21 21 23 23 21 22 22 22 22 23 23 23 23 26 
35 63 49 72 41 22 29 24 25 44 16 8 7 6 1 6 
3 2 4 13 19 19 15 18 16 18 15 8 6 7 7 1 
3 10 11 18 18 62 82 52 34 44 84 80 77 68 53 58 
62 77 66 63 64 65 63 58 47 36 30 26 23 23 25 22 
21 20 20 65 35 37 50 46 54 70 96 99 50 55 44 135 135 8 13 15 
20 23 22 21 23 23 20 22 22 23 23 23 23 22 22 26 
40 55 53 79 45 14 23 24 20 45 19 4 1 3 4 4 
9 15 19 22 26 29 29 25 23 23 21 16 13 12 8 5 
3 4 1 5 6 54 75 40 26 38 80 74 76 66 56 64 
54 79 78 66 69 78 72 61 51 40 33 27 22 20 22 20 
20 19 19 56 40 33 46 48 54 62 94 96 46 57 45 114 134 12 6 12 
17 22 23 23 23 22 21 23 24 24 24 23 23 23 22 24 
32 60 56 71 46 22 27 13 15 35 13 4 11 48 11 3 
8 10 25 28 19 26 28 28 28 27 24 18 11 7 6 5 
3 6 7 2 8 51 65 45 19 39 84 69 75 70 64 63 
56 66 73 65 64 73 72 64 53 47 45 35 24 21 21 17 
19 20 21 57 42 35 45 47 50 54 82 86 51 53 41 99 137 6 15 10 
14 18 20 21 21 21 19 21 21 22 22 24 24 24 23 24 
35 51 67 69 61 24 28 21 16 42 20 5 69 104 30 2 
9 13 21 23 15 17 23 26 23 21 21 20 16 12 10 9 
5 5 4 1 10 53 66 42 22 45 79 68 76 71 69 66 
59 61 72 59 64 66 68 66 54 42 32 25 24 24 21 19 
20 22 22 54 41 36 44 47 50 51 71 87 47 50 51 70 136 21 3 11 
14 16 18 20 22 21 19 20 19 20 22 25 26 26 25 29 
38 51 73 68 65 26 23 23 29 44 24 43 114 116 51 2 
3 12 17 19 20 20 29 26 19 14 13 14 11 6 3 2 
3 7 7 4 12 53 63 39 30 58 73 71 78 70 69 68 
63 58 72 56 66 65 71 63 55 42 30 24 28 28 19 21 
22 23 23 51 41 37 40 47 51 51 64 65 49 52 50 51 142 82 4 12 
13 14 16 19 22 22 20 20 20 22 24 25 25 27 30 36 
42 63 70 71 57 36 29 14 17 22 27 93 114 98 78 15 
1 14 24 23 27 26 28 26 20 15 17 19 18 14 10 1 
3 9 8 4 14 56 65 39 40 69 70 76 79 68 65 68 
63 59 70 59 67 72 82 65 59 50 37 29 30 29 21 23 
23 22 22 50 42 39 37 46 51 51 58 65 52 45 51 28 38 41 7 10 
11 12 14 17 21 21 19 20 21 24 25 23 22 28 35 41 
51 74 69 70 52 51 51 51 27 25 61 113 106 101 90 36 
1 9 25 22 29 31 25 27 24 23 25 25 19 11 6 5 
5 4 4 7 25 68 72 45 50 72 66 77 79 68 64 67 
62 63 67 62 62 73 86 75 65 55 44 31 25 26 26 23 
22 21 19 48 44 42 34 45 52 53 55 52 43 31 29 13 13 41 2 10 
12 13 14 17 20 21 20 19 21 24 24 20 21 30 41 51 
67 76 70 60 51 54 64 94 75 63 101 118 113 100 82 79 
31 16 20 17 25 32 26 27 27 29 32 30 21 10 4 4 
3 4 9 24 46 81 74 51 56 67 63 75 75 72 68 63 
61 64 65 61 54 63 77 76 64 57 51 38 26 22 22 23 
21 19 17 47 44 43 29 39 45 44 42 25 29 43 46 31 24 26 17 10 
13 15 16 17 19 21 20 21 21 22 23 21 24 35 48 66 
82 75 67 55 50 49 63 86 93 91 108 114 110 88 78 94 
63 26 16 18 17 17 12 13 12 13 17 19 15 10 7 9 
16 26 35 46 61 86 71 51 59 62 66 73 70 73 68 59 
61 61 67 60 53 53 67 74 60 53 53 47 37 27 21 23 
20 18 16 47 45 42 22 28 30 26 20 37 51 50 55 93 98 15 5 8 
11 14 14 15 17 18 19 23 21 22 23 24 28 41 54 77 
89 77 62 60 52 51 61 82 88 111 108 105 93 82 83 91 
90 59 54 71 64 52 47 42 35 27 25 25 24 21 20 31 
45 57 58 57 62 84 71 49 60 59 71 74 65 71 65 55 
60 58 72 61 57 48 62 77 59 46 46 48 46 39 29 22 
20 17 16 46 49 35 23 22 34 45 41 47 49 52 75 102 114 16 9 13 
15 16 16 17 19 19 18 18 19 21 22 25 42 45 69 85 
85 77 54 53 56 46 59 82 94 107 107 102 90 77 79 82 
83 81 74 94 114 103 98 86 81 69 62 72 73 61 66 70 
71 66 58 62 59 87 62 57 60 67 73 70 68 71 59 50 
50 50 65 64 58 48 55 68 66 54 50 38 39 29 27 25 
22 18 17 46 48 38 32 31 36 47 46 45 49 51 69 96 112 19 8 11 
13 14 15 16 19 20 19 18 21 18 24 32 38 62 80 89 
83 69 60 62 58 49 48 93 103 107 111 109 91 76 76 70 
79 71 90 112 130 118 115 101 98 90 83 91 90 79 84 73 
74 64 58 61 63 86 63 57 69 73 75 67 70 70 54 46 
50 51 60 59 59 52 57 70 68 56 49 36 37 30 28 25 
22 18 17 49 45 36 37 35 32 40 46 44 48 49 64 89 109 23 7 9 
12 13 14 16 19 21 20 17 22 16 25 36 35 76 84 86 
74 63 68 65 53 48 39 99 117 117 118 108 80 70 73 77 
84 66 86 114 119 113 109 115 111 102 89 88 83 71 74 75 
74 58 56 59 67 83 63 55 75 76 76 64 74 68 50 43 
51 50 54 54 59 56 58 68 68 59 50 37 35 30 27 26 
23 18 16 57 45 34 41 39 29 35 44 46 46 48 62 84 103 26 7 10 
12 14 14 17 20 21 20 18 23 19 27 35 43 80 80 78 
65 69 73 60 45 40 42 111 132 120 113 98 70 71 77 81 
79 65 61 105 109 113 104 108 102 95 85 84 81 71 73 73 
71 51 55 57 71 79 61 54 76 73 75 63 74 65 49 44 
52 49 52 52 59 55 57 72 73 68 58 46 41 36 32 28 
24 19 16 61 44 33 47 49 35 37 46 47 43 45 59 78 96 28 6 11 
14 15 15 17 20 21 20 20 23 23 28 34 63 81 81 76 
61 76 70 53 43 33 51 123 132 108 95 86 72 77 77 79 
75 68 48 88 110 112 103 98 92 88 83 85 84 73 71 70 
68 49 55 59 75 75 60 58 77 71 75 63 70 59 49 48 
52 48 53 54 59 55 57 74 70 64 53 45 36 32 30 30 
25 19 16 58 40 32 48 53 40 39 45 46 41 43 52 70 91 33 5 13 
15 16 16 17 19 20 19 20 19 25 28 39 78 80 83 75 
62 74 57 49 46 29 57 106 109 94 85 74 64 66 63 70 
69 60 46 64 103 103 103 97 89 88 85 85 81 64 55 68 
68 52 57 63 77 73 61 63 80 75 75 64 64 55 51 51 
55 51 54 55 60 56 59 74 63 54 44 39 28 26 25 29 
25 19 17 65 48 37 49 52 39 38 42 43 43 44 44 61 91 41 5 14 
15 16 16 17 19 19 18 19 18 28 34 55 82 78 83 68 
66 65 45 48 47 34 65 91 82 77 73 58 45 43 41 44 
52 53 62 67 95 102 107 94 86 87 86 84 80 64 53 68 
68 56 57 66 76 71 61 61 81 80 72 63 58 57 58 53 
63 58 55 51 60 58 59 78 60 52 47 48 33 30 30 27 
23 19 16 83 66 50 54 52 39 39 44 42 46 46 39 55 93 49 6 13 
15 16 16 16 18 18 17 21 21 36 44 73 82 77 80 61 
73 61 40 50 48 42 76 102 69 57 55 43 33 28 28 31 
46 67 94 96 90 102 99 95 84 83 80 75 71 57 47 69 
68 59 57 67 75 70 61 54 79 82 68 60 56 62 65 55 
70 66 55 48 59 58 58 72 53 48 49 54 36 31 30 26 
22 17 15 101 100 93 59 50 36 35 38 38 41 48 46 62 74 40 3 10 
15 15 14 18 19 16 16 19 27 53 68 78 77 82 73 72 
72 45 53 61 56 62 87 95 92 79 62 64 53 52 61 75 
81 99 109 111 111 100 93 89 89 82 77 74 74 50 41 63 
62 56 65 67 75 71 61 53 84 73 70 61 61 67 68 62 
69 61 48 54 53 50 70 63 68 53 43 52 48 32 28 26 
18 13 15 106 110 110 81 66 29 32 43 44 39 45 46 46 39 16 6 9 
14 14 13 17 19 17 17 15 34 60 70 74 75 78 74 72 
68 56 57 65 68 72 98 99 79 67 71 85 72 65 68 85 
83 89 89 100 107 104 102 91 83 80 76 60 60 51 48 64 
66 64 65 64 79 73 60 55 80 72 71 63 63 70 70 69 
62 59 54 56 56 55 66 58 65 58 48 52 49 37 32 27 
22 18 19 114 114 116 100 90 31 31 40 39 37 40 32 23 16 7 7 9 
13 13 13 17 18 16 17 21 47 66 75 76 80 76 73 68 
62 67 61 69 78 84 106 92 75 78 90 96 77 69 68 74 
80 88 77 88 91 97 104 98 78 74 70 48 50 53 55 67 
69 72 64 61 84 75 59 58 74 69 71 64 64 72 71 73 
55 54 57 56 57 55 57 59 64 58 44 41 46 46 40 27 
25 23 23 113 113 114 105 104 33 32 38 34 32 28 18 12 11 9 8 11 
14 13 13 16 16 15 17 33 54 65 78 82 85 71 68 63 
63 75 68 74 82 94 103 84 77 90 96 90 76 78 74 70 
83 95 76 85 79 85 94 101 78 65 60 45 53 54 57 72 
68 75 65 60 87 74 59 64 70 67 68 62 61 70 69 73 
56 53 55 56 57 51 48 50 58 62 56 50 54 49 31 20 
20 20 17 108 114 117 106 104 31 29 38 35 26 17 16 12 6 6 10 11 
14 13 13 16 16 15 19 40 54 62 79 83 80 64 63 62 
71 80 79 81 82 98 93 80 66 76 81 80 75 83 79 82 
87 93 75 88 82 81 84 90 78 60 50 47 58 54 61 75 
65 72 67 62 86 74 59 69 71 70 65 59 58 67 68 68 
62 56 51 58 60 49 46 50 55 63 61 58 63 54 30 19 
20 19 17 115 118 117 105 105 39 24 29 24 24 16 12 8 6 11 10 10 
13 13 14 17 17 18 24 42 54 68 82 81 72 62 63 64 
78 82 85 84 81 91 79 67 52 64 77 76 63 67 66 70 
77 89 82 91 84 79 80 75 72 58 48 46 56 52 64 74 
62 68 70 63 82 75 60 72 75 75 64 60 58 66 71 64 
62 56 48 56 60 49 45 54 54 56 54 53 61 56 37 21 
19 18 17 121 119 116 106 108 48 16 20 15 21 12 6 5 9 16 9 11 
13 13 15 18 18 20 27 46 57 77 84 81 70 67 64 71 
83 86 88 84 84 79 71 58 56 76 88 85 68 66 63 60 
68 88 94 96 88 78 77 72 63 56 52 43 50 50 60 69 
62 67 72 62 78 79 61 68 77 79 63 63 60 67 75 67 
56 54 52 53 58 51 43 45 51 57 58 55 55 47 31 22 
17 13 13 115 117 120 112 106 45 9 22 21 14 2 9 11 5 11 12 12 
14 14 16 18 18 20 27 49 58 80 82 81 73 73 61 79 
86 92 90 85 91 72 70 64 71 90 96 100 95 94 83 79 
76 89 102 104 98 81 72 79 57 53 56 41 47 49 54 64 
64 68 74 60 76 83 62 63 77 81 62 64 61 67 78 76 
53 55 59 52 57 55 42 49 55 58 54 49 47 43 36 34 
25 19 20 94 95 100 98 111 43 9 18 8 7 5 5 7 9 11 12 12 
12 15 19 17 15 23 37 52 69 83 88 84 75 70 75 86 
96 92 85 85 75 66 72 75 91 98 97 99 100 96 91 91 
83 91 100 110 103 80 77 74 72 59 44 42 37 53 60 60 
55 74 68 61 77 74 64 66 78 82 61 73 58 61 76 79 
61 57 61 51 58 65 41 50 54 58 55 47 45 39 29 38 
30 25 26 91 88 73 75 105 53 4 19 7 7 7 8 10 12 13 15 16 
17 16 16 19 22 32 46 56 74 81 85 74 76 76 88 86 
90 83 77 78 72 69 78 90 100 103 100 96 90 84 83 85 
87 97 100 103 98 82 82 84 73 60 52 49 34 48 63 53 
53 69 69 64 82 76 71 63 74 76 60 68 58 59 68 80 
62 57 62 55 57 67 53 47 51 57 56 50 48 48 43 36 
25 15 13 121 115 91 80 101 61 3 8 4 5 8 9 10 11 13 15 12 
16 13 14 22 29 38 52 53 73 76 81 71 82 80 89 91 
88 77 73 75 71 71 82 94 100 102 101 97 89 88 93 88 
93 101 100 101 98 88 87 83 73 62 57 55 38 50 65 52 
57 67 70 68 82 72 72 66 73 69 60 61 56 52 55 72 
60 56 63 57 53 61 59 51 60 63 51 41 48 55 51 42 
33 18 12 113 115 108 87 93 57 6 1 3 5 8 9 9 10 13 15 9 
15 15 18 27 30 37 53 56 69 69 72 75 89 87 87 91 
84 74 74 78 74 76 86 105 111 110 103 95 88 87 94 95 
95 96 97 102 99 90 88 78 77 70 60 58 46 56 62 54 
63 66 70 70 79 66 70 69 70 59 62 58 53 48 51 60 
59 59 65 59 50 53 54 54 61 67 59 50 54 64 66 53 
50 33 22 89 98 103 88 105 51 3 2 6 8 10 11 10 11 14 16 15 
18 21 27 32 31 39 56 64 69 70 63 78 88 95 91 84 
76 70 74 80 80 83 92 107 115 112 100 91 87 88 93 95 
91 87 93 98 92 87 89 82 84 77 66 62 48 54 57 54 
62 63 68 72 74 64 70 68 65 50 62 57 49 46 55 51 
60 64 66 60 50 51 51 55 56 65 71 61 51 55 63 72 
70 48 27 106 110 107 106 129 45 2 6 7 8 9 10 10 11 12 14 14 
15 22 30 31 36 50 64 62 68 75 64 80 82 92 88 85 
76 72 76 81 84 89 94 94 103 102 92 87 88 91 96 87 
87 83 91 92 83 85 92 84 82 75 68 63 44 49 55 55 
60 63 66 73 67 61 64 69 69 50 61 56 42 41 53 50 
59 62 63 56 48 52 53 54 61 67 64 57 59 62 59 59 
56 37 19 118 114 113 123 114 27 2 8 5 6 8 9 10 11 11 10 12 
13 24 29 28 43 62 65 62 68 75 70 81 81 84 79 85 
79 78 81 83 87 91 92 90 95 94 87 82 79 82 89 81 
86 82 86 85 77 83 89 81 81 75 65 60 46 51 55 56 
57 65 66 75 60 58 56 67 76 58 59 57 40 40 51 52 
54 56 60 52 44 52 55 50 60 65 59 60 74 80 70 68 
58 41 27 115 106 119 132 75 5 5 1 5 6 8 11 13 13 12 10 15 
18 30 31 28 48 66 58 74 74 70 69 79 85 82 78 76 
74 77 82 84 89 92 89 85 86 85 84 81 76 78 89 78 
85 78 79 80 75 79 79 81 90 82 61 57 52 58 53 53 
52 64 66 77 57 60 54 60 79 62 58 59 43 45 55 56 
52 54 62 52 41 51 56 54 48 54 66 66 59 56 56 62 
49 41 41 108 115 122 117 58 7 3 6 5 7 10 10 10 11 12 13 12 
20 42 25 37 57 58 65 82 72 69 77 85 85 80 78 75 
71 76 86 93 97 94 87 89 72 78 77 76 80 74 83 76 
78 77 76 80 78 72 72 77 80 83 70 57 54 63 46 50 
59 59 63 74 57 57 50 65 70 76 70 55 42 44 63 61 
56 54 62 54 47 57 55 49 56 57 63 62 69 65 62 61 
47 39 41 89 101 109 99 92 11 3 4 5 7 9 10 11 13 14 15 15 
32 39 30 43 58 53 69 66 65 69 76 81 80 79 80 78 
75 80 90 96 98 94 86 86 73 79 76 75 81 75 82 76 
78 77 78 82 82 77 75 66 74 82 69 58 58 66 46 52 
57 58 65 73 59 61 54 64 75 76 66 53 44 50 63 62 
58 58 66 57 49 55 52 43 53 55 56 50 59 63 70 63 
49 38 37 111 108 113 103 104 10 5 3 5 6 7 9 11 12 13 14 13 
41 32 30 50 65 56 70 57 62 70 78 82 82 81 79 78 
78 85 93 97 98 93 85 76 74 81 74 74 81 75 77 77 
77 75 76 80 81 76 69 59 71 83 72 61 60 68 47 54 
56 56 66 70 60 64 53 65 81 74 63 51 45 57 61 64 
59 60 64 55 47 51 48 45 51 51 54 50 58 59 62 61 
50 37 32 116 108 97 103 96 13 3 2 5 5 7 9 10 10 10 10 24 
37 25 41 62 63 59 71 59 64 71 79 85 86 80 73 76 
80 89 96 96 95 91 84 67 74 81 74 75 82 75 72 74 
73 72 73 76 80 76 66 63 72 84 76 64 58 66 49 57 
59 59 66 68 66 68 47 66 81 69 61 52 44 59 59 69 
61 60 60 49 44 49 48 48 52 49 52 49 56 55 56 66 
57 42 30 78 94 79 96 104 30 2 6 5 5 7 10 11 9 9 10 41 
29 30 58 70 48 59 73 61 67 73 79 83 82 75 69 76 
83 93 97 94 91 88 82 66 77 80 73 76 83 77 74 71 
70 72 73 75 82 81 70 67 69 79 77 64 52 61 51 58 
66 63 68 69 74 71 42 64 74 62 61 55 44 57 60 72 
63 63 59 48 45 48 48 44 49 47 46 39 47 54 65 68 
66 58 47 67 85 95 101 93 26 2 5 4 4 7 11 11 10 11 15 34 
29 44 57 56 46 69 69 64 70 78 81 79 75 73 73 80 
86 94 96 91 89 86 80 72 80 77 71 77 82 81 83 72 
72 75 73 70 78 80 68 66 63 72 74 62 48 57 51 53 
67 62 65 66 73 65 37 59 63 56 59 57 46 55 62 68 
59 63 59 48 46 45 45 38 43 43 48 46 54 57 64 64 
69 70 67 71 71 90 81 50 9 2 1 3 3 6 9 9 9 14 21 30 
35 47 48 44 58 76 65 72 73 77 81 79 74 74 77 81 
84 90 91 89 89 86 77 75 81 73 71 80 81 81 87 75 
75 79 73 63 70 75 62 66 62 72 73 63 49 56 48 48 
65 57 63 62 62 52 33 57 56 54 56 56 50 52 61 62 
55 62 58 48 47 43 43 40 43 45 57 59 64 57 54 59 
62 63 60 60 57 51 40 29 18 1 4 3 3 5 7 6 6 14 23 45 
38 38 51 50 65 70 68 80 74 72 77 79 76 74 75 80 
80 83 85 87 91 87 76 74 78 70 73 84 80 79 86 74 
76 81 74 61 68 75 63 68 67 76 76 65 52 57 45 48 
65 56 63 59 53 43 33 57 55 55 54 54 52 50 59 63 
55 63 58 48 49 45 45 46 51 54 62 57 58 52 53 50 
50 48 45 38 39 27 38 41 15 2 3 1 4 6 7 5 4 18 40 52 
39 47 51 63 63 64 60 71 74 68 74 79 76 80 79 81 
79 90 83 90 90 83 72 73 78 71 81 84 82 75 75 71 
72 77 76 63 67 76 61 65 66 79 68 58 53 59 46 52 
65 60 66 55 52 35 51 62 50 56 57 55 44 54 61 64 
65 62 46 47 41 47 48 47 48 48 47 46 45 44 42 43 
46 51 54 42 35 29 34 41 23 2 4 3 7 5 3 7 17 33 49 43 
50 54 54 65 56 59 68 74 72 67 75 78 75 81 80 81 
86 85 79 89 87 77 71 65 71 74 87 78 77 78 76 71 
67 75 74 64 70 75 64 59 62 75 68 60 57 61 48 47 
64 60 60 55 53 42 58 58 56 63 59 56 49 58 61 62 
65 60 42 42 41 46 45 40 44 46 45 48 53 55 54 57 
59 60 60 44 31 28 29 40 31 2 4 1 6 4 5 18 32 38 38 42 
60 53 54 70 56 57 69 76 68 66 75 74 73 81 80 75 
89 78 78 90 89 75 72 67 71 78 89 74 73 78 73 72 
63 76 74 66 73 72 66 59 64 75 70 62 58 58 45 43 
62 61 53 54 50 48 63 56 63 68 58 54 52 57 56 55 
61 57 41 41 42 43 40 40 46 51 52 57 64 66 64 60 
61 62 62 43 32 23 24 39 32 7 3 2 3 2 11 34 48 41 28 42 
63 52 56 67 54 61 71 75 64 67 76 71 69 78 78 75 
87 77 83 87 89 77 68 73 78 77 86 77 76 76 72 73 
65 81 77 69 74 66 66 60 68 77 73 64 60 55 43 44 
61 62 52 54 44 50 63 63 69 69 58 52 51 51 48 46 
53 54 47 46 42 38 35 38 43 50 55 59 59 57 55 50 
52 55 57 42 38 20 23 37 29 13 2 7 2 1 18 48 59 48 33 40 
58 56 62 55 48 66 75 72 63 72 78 69 68 74 77 83 
83 80 86 78 84 76 60 67 83 77 82 82 78 71 76 73 
69 87 81 71 71 62 64 58 69 76 74 65 63 56 47 46 
59 62 54 55 41 55 66 70 69 65 57 48 47 46 43 44 
48 50 52 48 38 31 35 41 42 48 57 58 53 49 49 46 
47 48 48 43 43 19 21 36 28 16 1 3 2 6 27 52 56 43 32 47 
52 51 59 49 52 69 70 69 65 75 77 70 70 73 77 84 
74 81 81 70 79 74 59 59 85 80 81 81 72 62 74 69 
72 87 81 71 69 61 62 58 72 76 74 64 62 54 48 48 
58 61 56 50 43 67 71 69 61 56 53 39 43 44 40 46 
47 47 52 44 33 28 39 44 44 48 55 57 53 51 52 44 
44 43 42 42 37 18 15 32 33 15 2 1 9 20 35 46 44 36 34 55 
49 46 53 49 61 66 64 65 65 74 72 70 74 71 75 78 
68 84 74 71 79 68 60 60 82 78 79 75 68 62 69 65 
75 83 78 69 65 61 58 60 75 77 72 59 57 48 46 50 
60 60 52 39 45 77 71 64 54 52 51 32 43 49 40 44 
47 45 49 38 31 29 42 40 44 48 49 50 50 48 45 39 
40 40 40 39 29 16 8 29 38 12 3 7 22 34 38 38 38 42 51 53 
52 50 52 48 60 60 66 63 64 70 66 69 76 69 73 74 
68 89 72 76 79 58 57 65 74 70 74 70 71 69 68 64 
77 78 74 67 63 61 54 58 75 75 70 56 55 46 47 53 
64 61 48 28 45 81 68 62 54 55 54 31 46 56 44 38 
46 45 47 35 33 31 43 42 51 55 51 50 54 49 39 35 
37 40 42 34 28 15 11 20 34 13 8 28 33 29 31 36 39 46 46 50 
55 51 45 48 57 61 64 64 67 66 69 75 71 67 73 72 
75 82 79 77 74 63 57 60 77 71 71 72 66 69 67 71 
75 72 73 66 68 58 52 64 67 75 72 60 50 44 49 66 
65 52 40 32 50 77 70 66 51 58 50 37 44 61 44 48 
45 43 45 42 40 28 44 43 49 55 49 49 53 44 36 36 
38 40 41 36 29 18 11 17 24 13 19 30 32 29 31 33 37 46 45 50 
53 50 46 50 57 62 66 68 69 68 71 76 70 64 69 74 
69 76 81 80 73 62 63 68 76 82 68 66 70 62 70 75 
73 68 68 65 65 59 57 66 69 70 65 53 44 48 55 63 
61 50 36 33 50 73 60 61 52 60 50 35 41 60 49 42 
50 49 41 36 40 30 37 41 44 51 48 48 50 41 34 29 
36 46 53 35 28 21 9 13 12 14 28 30 29 28 32 31 37 51 49 48 
50 48 48 53 57 62 68 70 69 69 73 76 68 63 67 73 
67 73 78 78 72 62 64 70 78 84 67 65 72 68 78 76 
68 65 64 66 60 59 59 67 72 64 60 49 42 54 59 63 
56 47 32 36 51 71 58 61 53 59 48 38 44 60 49 39 
53 52 42 35 40 31 35 39 40 46 46 46 45 35 31 34 
43 54 61 31 28 22 7 13 11 21 33 30 27 27 31 26 34 51 47 45 
46 47 51 57 59 61 69 68 67 70 75 74 66 64 69 69 
71 76 72 70 71 63 60 67 84 73 66 67 68 77 77 75 
64 63 63 67 56 57 58 66 73 61 60 53 45 60 58 63 
50 42 30 39 49 68 65 68 56 54 44 45 52 58 42 39 
51 49 46 41 41 33 38 39 37 43 45 44 39 29 29 45 
49 54 56 31 30 20 6 17 20 31 35 31 27 26 28 23 29 45 41 41 
43 46 53 60 60 61 68 67 68 72 74 68 62 64 69 68 
72 78 72 67 67 63 64 71 82 68 63 67 66 71 68 74 
62 62 62 66 53 55 59 66 72 59 59 56 51 61 54 60 
44 37 32 40 45 60 68 72 58 51 43 49 51 51 36 37 
49 44 45 45 47 39 39 38 35 42 44 42 36 28 30 46 
47 47 48 30 31 15 6 20 28 35 33 30 27 24 26 25 31 44 41 39 
43 47 53 60 60 61 66 69 70 74 71 61 59 64 66 70 
68 75 75 69 63 62 73 77 72 70 60 67 74 63 69 72 
62 60 61 61 52 54 61 67 69 57 55 54 54 59 50 57 
43 37 38 40 46 51 66 69 59 51 43 48 42 41 36 33 
51 41 37 41 51 46 36 35 34 42 43 40 34 28 33 43 
43 44 46 29 31 15 18 29 34 33 30 28 28 23 24 28 33 41 40 38 
43 47 51 58 60 61 66 70 69 71 65 56 59 66 64 70 
67 73 73 68 63 63 74 75 67 65 60 70 75 64 72 67 
62 59 63 58 53 53 62 67 67 60 53 52 56 54 48 55 
46 36 37 36 49 47 62 68 59 50 42 47 36 35 40 37 
52 38 34 38 48 46 38 34 35 43 42 36 31 27 33 42 
43 45 47 29 33 20 33 40 40 32 29 29 30 21 21 26 28 32 31 39 
44 46 49 55 60 62 65 68 66 67 60 54 63 71 66 67 
70 74 67 63 65 65 68 70 69 53 60 70 64 66 67 61 
61 60 68 59 56 52 60 66 66 64 55 53 57 51 46 52 
46 32 31 28 50 44 58 70 58 46 40 48 36 34 41 45 
51 34 37 39 42 42 43 34 37 45 41 32 28 24 30 40 
42 45 45 31 34 37 38 36 33 29 27 27 28 26 21 22 29 34 35 47 
46 45 49 55 61 64 64 62 64 60 54 56 65 68 65 66 
68 73 69 60 63 70 69 66 58 56 57 72 66 64 61 61 
64 59 61 61 54 56 59 68 70 61 50 51 55 50 44 47 
48 34 27 28 49 50 46 68 63 53 39 41 39 29 32 39 
45 34 33 35 43 36 39 35 48 41 37 28 26 21 33 39 
40 41 41 28 33 38 39 36 31 28 26 27 27 26 23 23 27 32 34 41 
43 47 53 58 62 62 62 64 66 61 52 53 63 69 67 63 
65 67 65 61 62 67 69 74 61 58 64 77 65 59 59 52 
60 58 57 56 52 55 56 65 70 60 49 53 54 48 45 43 
43 34 28 31 47 51 47 58 63 42 45 47 34 35 26 35 
43 34 31 32 41 37 38 42 46 38 35 28 27 24 34 40 
40 41 41 31 35 38 36 32 28 26 27 25 25 25 25 25 25 29 33 38 
43 50 56 59 61 62 63 64 67 61 51 51 62 69 68 63 
65 63 63 63 62 65 70 71 56 54 66 79 64 56 59 49 
61 60 57 55 52 55 54 62 70 58 46 53 52 43 44 41 
41 39 33 38 45 51 49 53 55 38 45 49 35 34 24 32 
39 34 30 30 37 36 37 47 41 32 32 27 26 27 35 42 
42 42 42 40 39 37 32 28 26 26 28 24 22 23 27 25 23 26 32 41 
46 51 55 56 58 63 67 62 64 60 51 53 64 70 67 62 
64 62 61 64 61 61 71 63 52 51 65 76 64 56 61 54 
63 60 59 58 52 53 53 63 70 54 41 52 50 38 40 44 
43 46 40 45 44 50 48 55 44 42 42 45 42 30 29 30 
33 32 32 31 32 34 38 45 33 27 29 25 23 28 35 41 
41 41 40 45 40 35 31 29 29 28 27 23 20 21 26 25 23 26 33 42 
47 52 53 52 54 60 66 58 59 57 54 58 66 69 65 60 
63 61 61 63 60 61 72 61 57 55 64 70 66 58 59 58 
59 54 58 59 50 50 53 64 68 50 39 52 51 37 38 46 
47 51 45 47 41 45 43 51 41 42 43 44 43 33 31 30 
27 31 35 34 28 33 40 40 30 27 28 24 18 26 35 38 
38 38 37 41 37 33 32 33 32 29 26 23 20 20 24 25 25 29 35 42 
47 52 53 50 51 56 61 56 56 55 57 60 64 65 64 60 
62 62 63 64 64 66 71 57 58 54 61 65 67 58 56 56 
54 49 57 59 50 50 54 62 64 49 41 53 52 40 38 42 
46 50 45 43 39 39 37 40 45 39 49 46 36 42 27 29 
22 31 37 36 27 34 40 36 31 31 28 25 16 24 35 37 
37 38 38 37 34 32 31 32 31 28 25 25 21 19 22 26 29 34 38 44 
48 52 52 49 49 54 60 58 55 56 59 59 58 60 65 64 
62 62 63 64 67 68 64 53 53 48 57 62 66 54 50 50 
52 50 56 58 50 51 54 58 59 50 45 52 50 40 36 34 
42 44 42 37 38 36 33 36 46 43 51 43 33 40 23 25 
21 33 35 35 29 37 36 31 32 32 25 27 17 24 37 37 
37 38 38 36 34 31 29 28 28 27 26 26 22 19 21 26 32 37 40 48 
51 53 50 48 49 56 62 59 57 58 61 57 52 56 67 65 
59 59 59 60 65 65 54 56 53 45 56 62 65 49 43 43 
51 51 53 54 49 50 51 54 56 52 48 49 46 37 32 28 
38 39 40 33 40 36 33 39 42 53 47 35 36 31 23 22 
22 35 33 33 32 40 32 26 30 31 22 28 18 25 39 33 
34 35 36 31 30 30 28 24 25 26 22 22 21 22 20 28 36 37 44 50 
50 51 49 46 51 59 60 58 59 57 57 57 54 56 65 67 
57 56 57 63 65 56 53 51 51 49 61 67 55 45 41 43 
52 54 55 51 47 52 52 50 55 55 47 46 46 38 34 31 
34 37 34 37 41 33 33 41 52 49 40 32 31 32 23 17 
27 29 26 30 35 33 30 30 32 28 27 20 16 29 39 34 
33 34 37 31 29 30 28 24 24 25 22 22 20 21 20 27 35 36 44 52 
49 46 43 42 49 59 62 58 59 57 55 53 50 53 62 67 
57 54 55 61 65 57 54 51 51 48 59 63 51 44 41 46 
54 55 56 52 47 51 49 48 54 53 44 42 42 35 30 31 
31 33 33 42 46 34 29 37 47 45 39 33 29 28 19 16 
26 27 24 29 33 31 27 28 31 29 28 21 16 28 37 34 
32 33 36 30 28 29 27 23 23 25 21 21 20 21 19 27 35 36 43 51 
46 42 38 39 48 58 60 56 58 56 53 49 46 50 62 67 
56 52 53 59 64 57 56 51 51 48 57 59 47 42 41 47 
54 54 55 52 47 49 44 47 53 49 40 38 37 31 26 24 
27 31 32 41 44 32 26 35 40 37 35 30 25 24 17 18 
26 26 23 29 33 30 25 26 30 29 29 22 16 27 35 35 
33 32 34 28 28 29 26 22 22 24 21 21 19 20 19 26 34 35 43 47 
42 39 38 40 49 57 56 52 55 54 51 47 44 51 64 68 
56 52 52 59 64 57 55 50 51 49 57 57 44 40 41 44 
50 50 52 51 47 47 41 45 53 46 37 35 34 31 24 16 
26 36 35 36 37 29 30 38 37 29 28 25 20 23 21 22 
27 26 25 31 35 30 25 25 30 29 29 22 15 26 35 38 
34 33 33 